<svg width="20" height="20" viewBox="0 0 20 20" fill="none" xmlns="http://www.w3.org/2000/svg">
<path d="M10 20C15.5228 20 20 15.5228 20 10C20 4.47715 15.5228 0 10 0C4.47715 0 0 4.47715 0 10C0 15.5228 4.47715 20 10 20Z" fill="#0B0E11"/>
<path d="M6.43769 5.39704L9.96019 3.34662L13.4827 5.39704L12.1877 6.15451L9.96019 4.86158L7.73273 6.15451L6.43769 5.39704ZM13.4827 7.98291L12.1877 7.22543L9.96019 8.51837L7.73273 7.22543L6.43769 7.98291V9.49787L8.66514 10.7908V13.3767L9.96019 14.1341L11.2552 13.3767V10.7908L13.4827 9.49787V7.98291ZM13.4827 12.0837V10.5688L12.1877 11.3263V12.8412L13.4827 12.0837ZM14.4022 12.6192L12.1747 13.9121V15.4271L15.6972 13.3767V9.27585L14.4022 10.0333V12.6192ZM13.1071 6.68997L14.4022 7.44745V8.96241L15.6972 8.20493V6.68997L14.4022 5.93249L13.1071 6.68997ZM8.66514 14.4606V15.9756L9.96019 16.7331L11.2552 15.9756V14.4606L9.96019 15.2181L8.66514 14.4606ZM6.43769 12.0837L7.73273 12.8412V11.3263L6.43769 10.5688V12.0837ZM8.66514 6.68997L9.96019 7.44745L11.2552 6.68997L9.96019 5.93249L8.66514 6.68997ZM5.51819 7.44745L6.81323 6.68997L5.51819 5.93249L4.22314 6.68997V8.20493L5.51819 8.96241V7.44745ZM5.51819 10.0333L4.22314 9.27585V13.3767L7.74564 15.4271V13.9121L5.51819 12.6192V10.0333Z" fill="#F1B90C"/>
</svg>
